<?xml version="1.0" standalone="no"?>
<!DOCTYPE svg PUBLIC "-//W3C//DTD SVG 20010904//EN"
 "http://www.w3.org/TR/2001/REC-SVG-20010904/DTD/svg10.dtd">
<svg version="1.0" xmlns="http://www.w3.org/2000/svg"
 width="225.000000pt" height="225.000000pt" viewBox="0 0 225.000000 225.000000"
 preserveAspectRatio="xMidYMid meet">
<metadata>
Created by potrace 1.11, written by Peter Selinger 2001-2013
</metadata>
<g transform="translate(0.000000,225.000000) scale(0.100000,-0.100000)"
fill="#000000" stroke="none">
<path d="M342 2088 c-73 -28 -153 -109 -181 -183 -21 -55 -21 -69 -21 -780 0
-704 1 -726 20 -779 29 -76 88 -139 168 -178 l67 -33 730 0 730 0 61 28 c76
35 135 94 171 172 l28 60 0 730 0 730 -33 67 c-39 80 -102 139 -178 168 -53
19 -75 20 -782 19 -708 0 -728 -1 -780 -21z m788 -508 l0 -50 -250 0 -250 0 0
50 0 50 250 0 250 0 0 -50z m600 -401 c0 -499 0 -501 -64 -540 -53 -32 -59
-27 -51 44 12 110 17 847 5 847 -5 0 -10 23 -10 50 l0 50 60 0 60 0 0 -451z
m-924 191 l33 -65 1 68 c0 65 1 67 25 67 l25 0 0 -105 0 -105 -30 0 c-27 0
-33 7 -67 73 l-38 72 -3 -72 c-3 -65 -5 -73 -22 -73 -19 0 -20 7 -20 106 l0
105 32 -3 c27 -3 35 -11 64 -68z m264 51 c0 -16 -8 -20 -42 -23 -57 -4 -60
-32 -5 -36 28 -2 37 -8 37 -22 0 -14 -9 -20 -37 -22 -30 -2 -38 -7 -38 -23 0
-16 8 -21 43 -23 34 -3 42 -7 42 -23 0 -17 -7 -19 -70 -19 l-70 0 0 105 0 105
70 0 c63 0 70 -2 70 -19z m59 -28 c0 -49 -8 -42 -23 20 -5 20 -3 27 9 27 11 0
15 -11 14 -47z m-1 -255 l-3 -23 -210 0 -210 0 -3 23 -3 22 216 0 216 0 -3
-22z m0 -110 l-3 -23 -210 0 -210 0 -3 23 -3 22 216 0 216 0 -3 -22z m2 -108
c0 -19 -7 -20 -215 -20 -208 0 -215 1 -215 20 0 19 7 20 215 20 208 0 215 -1
215 -20z m0 -110 c0 -28 -22 -31 -235 -28 -188 3 -190 3 -193 26 l-3 22 215 0
c209 0 216 -1 216 -20z m-234 -90 l235 0 -3 -52 -3 -53 -215 -3 c-118 -2 -230
0 -247 3 -33 6 -33 7 -33 62 0 46 3 54 16 49 9 -3 121 -6 250 -6z"/>
</g>
</svg>
